<svg xmlns="http://www.w3.org/2000/svg" viewBox="0 0 409.68 69.96"><defs><style>.cls-1{fill:#231815;}</style></defs><g id="图层_2" data-name="图层 2"><g id="图层_1-2" data-name="图层 1"><path class="cls-1" d="M63.66,17.28q1.68,0,1.68,1.44a3.07,3.07,0,0,1-.42,1.44l-15,25.92a5.6,5.6,0,0,1-2,2,4.87,4.87,0,0,1-2.55.84H25.2a4.79,4.79,0,0,0-2.49.84,5.64,5.64,0,0,0-2,2L11.16,68.4Q10.26,70,9.24,70a1,1,0,0,1-.9-.6L.42,55.86A3.08,3.08,0,0,1,0,54.18a5.15,5.15,0,0,1,.72-2.7L18.84,20.16a5.66,5.66,0,0,1,2-2,4.72,4.72,0,0,1,2.52-.84ZM43.07,23a3,3,0,0,0,.43-1.44q0-1.44-1.62-1.44a4.87,4.87,0,0,0-2.55.84,5.6,5.6,0,0,0-2,2L25.69,43.21a2.69,2.69,0,0,0-.49,1.43q0,1.44,1.68,1.44a4.72,4.72,0,0,0,2.52-.84,6.21,6.21,0,0,0,2-2Z"/><path class="cls-1" d="M54,49q-1.68,0-1.68-1.44a3.07,3.07,0,0,1,.42-1.44l15-25.92a5.6,5.6,0,0,1,2-2,4.87,4.87,0,0,1,2.55-.84H86.7q1.62,0,1.62,1.44a3.07,3.07,0,0,1-.42,1.44l-15,25.92a5.6,5.6,0,0,1-2,2A4.79,4.79,0,0,1,68.4,49Z"/><path class="cls-1" d="M98.82,55.86a3.48,3.48,0,0,1-.36-1.68,5.15,5.15,0,0,1,.72-2.7,2.55,2.55,0,0,0,.3-1.14q0-1.38-1.74-1.38H77.58q-1.68,0-1.68-1.44a3.07,3.07,0,0,1,.42-1.44l15-25.92a5.6,5.6,0,0,1,2-2,4.87,4.87,0,0,1,2.55-.84H136.2q1.62,0,1.62,1.44a3.07,3.07,0,0,1-.42,1.44L134,25.92a5.6,5.6,0,0,1-2,2,4.79,4.79,0,0,1-2.49.84h-14.4q-1.68,0-1.68-1.44a3.07,3.07,0,0,1,.42-1.44L115.55,23A2.92,2.92,0,0,0,116,21.6q0-1.44-1.62-1.44a4.72,4.72,0,0,0-2.52.84,6.21,6.21,0,0,0-2,2L98.16,43.2a3.07,3.07,0,0,0-.42,1.44q0,1.44,1.62,1.44a4.81,4.81,0,0,0,2.54-.84,5.6,5.6,0,0,0,2-2l5-8.64a6.21,6.21,0,0,1,2-2,4.72,4.72,0,0,1,2.52-.84h14.4q1.68,0,1.68,1.44a2.79,2.79,0,0,1-.48,1.44L109.56,68.4q-.9,1.56-1.92,1.56a.92.92,0,0,1-.84-.6Z"/><path class="cls-1" d="M188.34,17.28q1.68,0,1.68,1.44a3.07,3.07,0,0,1-.42,1.44l-15,25.92a5.6,5.6,0,0,1-2,2A4.87,4.87,0,0,1,170,49H149.88a4.79,4.79,0,0,0-2.49.84,5.49,5.49,0,0,0-2,2L135.84,68.4q-.9,1.56-1.92,1.56a1,1,0,0,1-.9-.6l-7.92-13.5a3.08,3.08,0,0,1-.42-1.68,5.15,5.15,0,0,1,.72-2.7l18.12-31.32a5.66,5.66,0,0,1,2-2,4.72,4.72,0,0,1,2.52-.84ZM167.75,23a3.1,3.1,0,0,0,.43-1.44q0-1.44-1.62-1.44A4.87,4.87,0,0,0,164,21a5.6,5.6,0,0,0-2,2L150.37,43.21a2.69,2.69,0,0,0-.49,1.43q0,1.44,1.68,1.44a4.72,4.72,0,0,0,2.52-.84,6.21,6.21,0,0,0,2-2Z"/><path class="cls-1" d="M237,17.28q1.62,0,1.62,1.44a3.07,3.07,0,0,1-.42,1.44l-15,25.92a5.6,5.6,0,0,1-2,2,4.79,4.79,0,0,1-2.49.84H178.38q-1.68,0-1.68-1.44a3.07,3.07,0,0,1,.42-1.44l15-25.92a5.6,5.6,0,0,1,2-2,4.87,4.87,0,0,1,2.55-.84ZM216.36,23a3.07,3.07,0,0,0,.42-1.44q0-1.44-1.62-1.44a4.72,4.72,0,0,0-2.52.84,6.08,6.08,0,0,0-2,2L199,43.2a3,3,0,0,0-.43,1.44q0,1.44,1.62,1.44a4.87,4.87,0,0,0,2.55-.84,5.6,5.6,0,0,0,2-2Z"/><path class="cls-1" d="M266,28.8q-1.68,0-1.68-1.44a3.07,3.07,0,0,1,.42-1.44L266.46,23a3.07,3.07,0,0,0,.42-1.44q0-1.44-1.62-1.44a4.78,4.78,0,0,0-2.53.84,6.21,6.21,0,0,0-2,2l-3.34,5.73a3.05,3.05,0,0,0-.43,1.46c0,1,.56,1.45,1.68,1.45h20.16q1.68,0,1.68,1.44a2.79,2.79,0,0,1-.48,1.44L273.3,46.08a5.6,5.6,0,0,1-2,2,4.79,4.79,0,0,1-2.49.84H228.48q-1.68,0-1.68-1.44a3.07,3.07,0,0,1,.42-1.44l3.36-5.76a5.6,5.6,0,0,1,2-2,4.87,4.87,0,0,1,2.55-.84h14.4q1.62,0,1.62,1.44a3.07,3.07,0,0,1-.42,1.44l-1.68,2.88a3.07,3.07,0,0,0-.42,1.44q0,1.44,1.62,1.44a4.87,4.87,0,0,0,2.55-.84,5.6,5.6,0,0,0,2-2l3.36-5.76A3.07,3.07,0,0,0,258.6,36q0-1.44-1.68-1.44H236.76q-1.62,0-1.62-1.44a3.07,3.07,0,0,1,.42-1.44l6.66-11.52a5.6,5.6,0,0,1,2-2,4.87,4.87,0,0,1,2.55-.84H287.1q1.62,0,1.62,1.44a3.07,3.07,0,0,1-.42,1.44l-3.36,5.76a5.6,5.6,0,0,1-2,2,4.79,4.79,0,0,1-2.49.84Z"/><path class="cls-1" d="M282.6,68.4Q281.7,70,280.68,70a1,1,0,0,1-.9-.6l-7.92-13.5a2.87,2.87,0,0,1-.36-1.5,6.19,6.19,0,0,1,.9-3.24L300.24,2.88a5.6,5.6,0,0,1,2-2A4.87,4.87,0,0,1,304.8,0h14.4q1.62,0,1.62,1.44a3.07,3.07,0,0,1-.42,1.44L317,8.64a3.07,3.07,0,0,0-.42,1.44q0,1.44,1.68,1.44,2.16,0,2.16,1T318.9,14a7.29,7.29,0,0,1-2.28.42,4.72,4.72,0,0,0-2.52.84,6.21,6.21,0,0,0-2,2Z"/><path class="cls-1" d="M325.81,35.4a5.64,5.64,0,0,0-2,2l-3.37,5.74a3.51,3.51,0,0,0-.36,1.45c0,1,.54,1.46,1.62,1.46a4.87,4.87,0,0,0,2.55-.84,5.6,5.6,0,0,0,2-2L328,40.32a5.6,5.6,0,0,1,2-2,4.87,4.87,0,0,1,2.55-.84h14.4q1.62,0,1.62,1.44a3.07,3.07,0,0,1-.42,1.44l-3.36,5.76a5.6,5.6,0,0,1-2,2,4.79,4.79,0,0,1-2.49.84H299.94q-1.68,0-1.68-1.44a3.07,3.07,0,0,1,.42-1.44l15-25.92a5.6,5.6,0,0,1,2-2,4.87,4.87,0,0,1,2.55-.84h40.32q1.62,0,1.62,1.44a3.07,3.07,0,0,1-.42,1.44l-6.67,11.52a5.6,5.6,0,0,1-2,2,4.93,4.93,0,0,1-2.56.84H328.33A4.72,4.72,0,0,0,325.81,35.4Zm3-6.64a3.28,3.28,0,0,0-.41,1.46c0,1,.56,1.46,1.68,1.46a4.72,4.72,0,0,0,2.52-.84,6.21,6.21,0,0,0,2-2l3.3-5.76a3.07,3.07,0,0,0,.42-1.44c0-1-.54-1.44-1.63-1.44a4.78,4.78,0,0,0-2.53.84,6.18,6.18,0,0,0-2,2Z"/><path class="cls-1" d="M408.06,17.28q1.62,0,1.62,1.44a3.07,3.07,0,0,1-.42,1.44l-3.36,5.76a5.6,5.6,0,0,1-2,2,4.79,4.79,0,0,1-2.49.84H387q-1.68,0-1.68-1.44a3.07,3.07,0,0,1,.42-1.44L387.42,23a3.07,3.07,0,0,0,.42-1.44q0-1.44-1.62-1.44a4.72,4.72,0,0,0-2.52.84,6.15,6.15,0,0,0-2.05,2l-13.35,23a5.62,5.62,0,0,1-2,2,4.72,4.72,0,0,1-2.48.85H349.43c-1.11,0-1.67-.48-1.67-1.44a3.07,3.07,0,0,1,.42-1.44l15-25.92a5.6,5.6,0,0,1,2-2,4.87,4.87,0,0,1,2.55-.84Z"/></g></g></svg>