<?xml version="1.0" standalone="no"?><!DOCTYPE svg PUBLIC "-//W3C//DTD SVG 1.1//EN" "http://www.w3.org/Graphics/SVG/1.1/DTD/svg11.dtd"><svg t="1626927334490" class="icon" viewBox="0 0 1024 1024" version="1.1" xmlns="http://www.w3.org/2000/svg" p-id="2089" data-spm-anchor-id="a313x.7781069.0.i2" xmlns:xlink="http://www.w3.org/1999/xlink" width="64" height="64"><defs><style type="text/css">@font-face { font-family: feedback-iconfont; src: url("//at.alicdn.com/t/font_1031158_1uhr8ri0pk5.eot?#iefix") format("embedded-opentype"), url("//at.alicdn.com/t/font_1031158_1uhr8ri0pk5.woff2") format("woff2"), url("//at.alicdn.com/t/font_1031158_1uhr8ri0pk5.woff") format("woff"), url("//at.alicdn.com/t/font_1031158_1uhr8ri0pk5.ttf") format("truetype"), url("//at.alicdn.com/t/font_1031158_1uhr8ri0pk5.svg#iconfont") format("svg"); }
</style></defs><path d="M511.6 905.1c-3.8 0-7.5-1.4-10.5-4.1L141.6 568.8c-103.9-103.9-103.9-273 0-376.9 101.6-101.7 265.7-103.9 370-6.7C616 88 780 90.2 881.7 191.9c103.9 103.9 103.9 273 0 376.9L629.1 802.2c-6.3 5.8-16 5.4-21.8-0.9-5.8-6.2-5.4-16 0.9-21.8l252.2-232.9c91.4-91.5 91.4-241-0.4-332.9-91.9-91.9-241.4-91.9-333.3 0l-4 4c-2.9 2.9-6.8 4.5-10.9 4.5-4.1 0-8-1.6-10.9-4.6l-4-4c-91.9-91.8-241.4-91.8-333.3 0-91.9 91.9-91.9 241.4 0 333.3l4 4.1 354.6 327.3c6.3 5.8 6.7 15.5 0.9 21.8-3.2 3.4-7.3 5-11.5 5z" p-id="2090" fill="#8a8a8a" data-spm-anchor-id="a313x.7781069.0.i3" class=""></path></svg>