<?xml version="1.0" standalone="no"?><!DOCTYPE svg PUBLIC "-//W3C//DTD SVG 1.1//EN" "http://www.w3.org/Graphics/SVG/1.1/DTD/svg11.dtd"><svg t="1626359582183" class="icon" viewBox="0 0 1024 1024" version="1.1" xmlns="http://www.w3.org/2000/svg" p-id="11978" xmlns:xlink="http://www.w3.org/1999/xlink" width="64" height="64"><defs><style type="text/css"></style></defs><path d="M971.22304 1004.97408a40.01792 40.01792 0 0 1-57.1392 0l-187.61728-190.75072a41.3696 41.3696 0 0 1 0-57.91744 40.01792 40.01792 0 0 1 57.1392 0l187.61728 190.75072a41.3696 41.3696 0 0 1 0 57.91744zM445.0304 819.2A406.85568 406.85568 0 0 1 40.96 409.6 406.85568 406.85568 0 0 1 445.0304 0a406.85568 406.85568 0 0 1 404.0704 409.6 406.85568 406.85568 0 0 1-404.0704 409.6z m0-737.28A325.48864 325.48864 0 0 0 121.77408 409.6a323.29728 323.29728 0 1 0 646.51264 0A325.48864 325.48864 0 0 0 445.0304 81.92z m80.81408 307.2a40.96 40.96 0 1 1 40.40704-40.96 40.69376 40.69376 0 0 1-40.40704 40.96z" p-id="11979" fill="#BBBBBB"></path></svg>