<?xml version="1.0" standalone="no"?><!DOCTYPE svg PUBLIC "-//W3C//DTD SVG 1.1//EN" "http://www.w3.org/Graphics/SVG/1.1/DTD/svg11.dtd"><svg t="1626336340884" class="icon" viewBox="0 0 1024 1024" version="1.1" xmlns="http://www.w3.org/2000/svg" p-id="3852" xmlns:xlink="http://www.w3.org/1999/xlink" width="200" height="200"><defs><style type="text/css"></style></defs><path d="M615.253333 1017.6H520.533333a42.666667 42.666667 0 1 1 0-85.333333h94.72a42.666667 42.666667 0 1 1 0 85.333333zM858.026667 872.106667H277.76A130.986667 130.986667 0 0 1 162.986667 810.666667a110.933333 110.933333 0 0 1 0-110.933334 935.68 935.68 0 0 0 74.24-256l26.026666-159.573333a288 288 0 0 1 128-192 322.133333 322.133333 0 0 1 352.426667 0 288 288 0 0 1 128 192l26.026667 159.573333a935.68 935.68 0 0 0 74.24 256 110.933333 110.933333 0 0 1 0 110.933334 130.986667 130.986667 0 0 1-113.92 61.44z m-419.413334-708.266667A200.533333 200.533333 0 0 0 346.88 298.666667l-26.026667 159.573333a988.586667 988.586667 0 0 1-85.333333 282.88 26.026667 26.026667 0 0 0 0 26.026667 46.506667 46.506667 0 0 0 42.666667 20.48h580.266666a46.506667 46.506667 0 0 0 42.666667-20.48 23.893333 23.893333 0 0 0 0-26.026667 988.586667 988.586667 0 0 1-85.333333-282.88L788.906667 298.666667a200.533333 200.533333 0 0 0-91.733334-133.973334 235.093333 235.093333 0 0 0-258.56 0z" p-id="3853"></path><path d="M803.84 404.053333H331.946667a42.666667 42.666667 0 0 1 0-85.333333h471.893333a42.666667 42.666667 0 0 1 0 85.333333z" p-id="3854"></path></svg>